<svg width="20" height="21" viewBox="0 0 20 21" fill="none" xmlns="http://www.w3.org/2000/svg">
<path d="M1 2.5C1 1.67157 1.67157 1 2.5 1H6.5C7.32843 1 8 1.67157 8 2.5V5.5C8 6.32843 7.32843 7 6.5 7H2.5C1.67157 7 1 6.32843 1 5.5V2.5Z" stroke="#6A5344" stroke-width="1.8" stroke-linejoin="round"/>
<rect x="11.5" y="13.5" width="7" height="6" rx="1.5" stroke="#6A5344" stroke-width="1.8" stroke-linejoin="round"/>
<rect x="1" y="10.5" width="7" height="9" rx="1.5" stroke="#6A5344" stroke-width="1.8" stroke-linejoin="round"/>
<path d="M11.5 2.5C11.5 1.67157 12.1716 1 13 1H17C17.8284 1 18.5 1.67157 18.5 2.5V8.5C18.5 9.32843 17.8284 10 17 10H13C12.1716 10 11.5 9.32843 11.5 8.5V2.5Z" stroke="#6A5344" stroke-width="1.8" stroke-linejoin="round"/>
</svg>
