<svg version="1.0" xmlns="http://www.w3.org/2000/svg" width="22" height="22" viewBox="0 0 68 68" preserveAspectRatio="xMidYMid meet">

    <g transform="translate(0,68) scale(0.1,-0.1)" fill="currentColor" stroke="none">
    <path d="M15 657 c-3 -7 -4 -87 -3 -177 l3 -165 145 0 145 0 0 175 0 175 -143 3 c-110 2 -144 0 -147 -11z m235 -167 l0 -120 -90 0 -90 0 0 120 0 120 90 0 90 0 0 -120z"/>
    <path d="M374 657 c-2 -7 -3 -60 -2 -118 l3 -104 145 0 145 0 0 115 0 115 -143 3 c-112 2 -144 0 -148 -11z m236 -107 l0 -60 -90 0 -90 0 0 60 0 60 90 0 90 0 0 -60z"/>
    <path d="M375 357 c-3 -7 -4 -87 -3 -177 l3 -165 145 0 145 0 0 175 0 175 -143 3 c-110 2 -144 0 -147 -11z m235 -167 l0 -120 -90 0 -90 0 0 120 0 120 90 0 90 0 0 -120z"/>
    <path d="M14 237 c-2 -7 -3 -60 -2 -118 l3 -104 145 0 145 0 0 115 0 115 -143 3 c-112 2 -144 0 -148 -11z m236 -107 l0 -60 -90 0 -90 0 0 60 0 60 90 0 90 0 0 -60z"/>
    </g>
    </svg>
    