<svg width="40" height="40" viewBox="0 0 40 40" fill="none" xmlns="http://www.w3.org/2000/svg">
<circle cx="20" cy="20" r="19.5" fill="#FCEBC0" stroke="#F5E3B6"/>
<path d="M22.286 11.9445C22.7742 11.4564 23.5656 11.4564 24.0538 11.9445L26.7084 14.5991C27.1965 15.0873 27.1965 15.8787 26.7084 16.3669L15.9874 27.0879C15.9405 27.1348 15.8769 27.1611 15.8106 27.1611L11.7418 27.1611L11.7418 27.9111L11.7418 27.1611C11.6037 27.1611 11.4918 27.0492 11.4918 26.9111L10.7418 26.9111L11.4918 26.9111L11.4918 22.8423C11.4918 22.776 11.5182 22.7124 11.565 22.6655L22.286 11.9445Z" stroke="#6A5344" stroke-width="1.5" stroke-linejoin="round"/>
<path d="M20.4277 13.8381L24.8141 18.2245" stroke="#6A5344" stroke-width="1.5"/>
<path d="M11.4385 22.5612L16.1904 27.3131" stroke="#6A5344" stroke-width="1.5"/>
<path d="M22.6211 16.0312L14.0311 24.6213" stroke="#6A5344" stroke-width="1.5"/>
<path d="M19.5 27.1687H27.5539" stroke="#6A5344" stroke-width="1.5" stroke-linecap="round"/>
</svg>
