<svg width="19" height="24" viewBox="0 0 19 24" fill="none" xmlns="http://www.w3.org/2000/svg">
<path d="M5.25 2.7002H3C1.89543 2.7002 1 3.59563 1 4.7002V20.2502C1 21.3548 1.89543 22.2502 3 22.2502H16C17.1046 22.2502 18 21.3548 18 20.2502V4.7002C18 3.59563 17.1046 2.7002 16 2.7002H13.75" stroke="#6A5344" stroke-width="1.8" stroke-linejoin="round"/>
<path d="M5.25098 9.5H13.751" stroke="#6A5344" stroke-width="1.8" stroke-linejoin="round"/>
<path d="M5.25098 12.9004H13.751" stroke="#6A5344" stroke-width="1.8" stroke-linejoin="round"/>
<path d="M5.25098 16.3003H13.751" stroke="#6A5344" stroke-width="1.8" stroke-linejoin="round"/>
<path d="M5.25 2.7C5.25 1.76112 6.01112 1 6.95 1H12.05C12.9889 1 13.75 1.76112 13.75 2.7V2.7C13.75 3.63888 12.9889 4.4 12.05 4.4H6.95C6.01112 4.4 5.25 3.63888 5.25 2.7V2.7Z" stroke="#6A5344" stroke-width="1.8" stroke-linejoin="round"/>
</svg>
