<svg width="20" height="22" viewBox="0 0 20 22" fill="none" xmlns="http://www.w3.org/2000/svg">
<path d="M1 9.58385C1 9.15229 1.18588 8.74163 1.51012 8.45684L9.01012 1.86942C9.57634 1.3721 10.4237 1.3721 10.9899 1.86942L18.4899 8.45684C18.8141 8.74163 19 9.15229 19 9.58385V18.9049C19 19.7333 18.3284 20.4049 17.5 20.4049H14C13.1716 20.4049 12.5 19.7333 12.5 18.9049V15.6939C12.5 14.8655 11.8284 14.1939 11 14.1939H9C8.17157 14.1939 7.5 14.8655 7.5 15.6939V18.9049C7.5 19.7333 6.82843 20.4049 6 20.4049H2.5C1.67157 20.4049 1 19.7333 1 18.9049V9.58385Z" stroke="currentcolor" stroke-width="1.8" stroke-linejoin="round"/>
</svg>
