<svg xmlns:dc="http://purl.org/dc/elements/1.1/" xmlns:cc="http://creativecommons.org/ns#" xmlns:rdf="http://www.w3.org/1999/02/22-rdf-syntax-ns#" xmlns:svg="http://www.w3.org/2000/svg" xmlns="http://www.w3.org/2000/svg" viewBox="674.1614305047806 366.856 470.468741212036 286.384" height="286.384" width="470.468741212036" xml:space="preserve" id="svg2" version="1.1">
  <metadata id="metadata8">
    <rdf:rdf>
      <cc:work rdf:about="">
        <dc:format>image/svg+xml</dc:format>
        <dc:type rdf:resource="http://purl.org/dc/dcmitype/StillImage"></dc:type>
      </cc:work>
    </rdf:rdf>
  </metadata>
  <defs id="defs6">
    <clipPath id="clipPath18" clipPathUnits="userSpaceOnUse">
      <path id="path16" d="M 0,768 H 1366 V 0 H 0 Z"></path>
    </clipPath>
  </defs>
  <g transform="matrix(1.3333333,0,0,-1.3333333,0,1024)" id="g10">
    <g id="g12">
      <g clip-path="url(#clipPath18)" id="g14">
        <g transform="translate(770.6188,400.374)" id="g20">
          <path id="path22" style="fill:#866b5c;fill-opacity:1;fill-rule:nonzero;stroke:none" d="m 0,0 c 2.754,3.074 4.136,7.019 4.136,11.829 0,4.809 -1.382,8.754 -4.136,11.828 -2.763,3.082 -6.441,4.619 -11.034,4.619 -4.464,0 -8.03,-1.537 -10.724,-4.619 -2.685,-3.074 -4.023,-7.019 -4.023,-11.828 0,-4.81 1.338,-8.755 4.023,-11.829 2.694,-3.074 6.26,-4.611 10.724,-4.611 4.593,0 8.271,1.537 11.034,4.611 m -29.71,-16.551 c -4.601,2.797 -8.167,6.665 -10.714,11.621 -2.547,4.947 -3.825,10.533 -3.825,16.759 0,6.225 1.278,11.811 3.825,16.767 2.547,4.947 6.113,8.824 10.714,11.612 4.594,2.798 9.826,4.197 15.697,4.197 7.995,0 13.935,-2.625 17.829,-7.857 V 42.92 H 22.699 V -19.254 H 3.816 v 6.363 c -3.894,-5.232 -9.834,-7.848 -17.829,-7.848 -5.871,0 -11.103,1.399 -15.697,4.188"></path>
        </g>
        <g transform="translate(845.6223,427.0616)" id="g24">
          <path id="path26" style="fill:#866b5c;fill-opacity:1;fill-rule:nonzero;stroke:none" d="M 0,0 H -12.303 V -45.941 H -31.195 V 0 h -12.303 v 16.232 h 12.303 v 18.459 h 18.892 V 16.232 l 12.303,0 z"></path>
        </g>
        <g transform="translate(520.3777,366.3119)" id="g28">
          <path id="path30" style="fill:#866b5c;fill-opacity:1;fill-rule:nonzero;stroke:none" d="m 0,0 h 18.883 v -6.363 c 3.893,5.232 9.695,7.848 17.406,7.848 4.809,0 9.048,-1.114 12.726,-3.341 3.678,-2.228 6.527,-5.431 8.539,-9.601 2.021,-4.171 3.022,-9.092 3.022,-14.747 V -62.173 H 41.694 v 32.783 c 0,4.74 -0.933,8.366 -2.806,10.879 -1.883,2.512 -4.585,3.764 -8.116,3.764 -3.679,0 -6.58,-1.381 -8.704,-4.136 -2.123,-2.762 -3.185,-6.544 -3.185,-11.353 V -62.173 H 0 Z"></path>
        </g>
        <g transform="translate(741.4363,350.2112)" id="g32">
          <path id="path34" style="fill:#866b5c;fill-opacity:1;fill-rule:nonzero;stroke:none" d="M 0,0 H -12.303 V -45.941 H -31.186 V 0 h -12.312 v 16.232 h 12.312 v 18.459 h 18.883 V 16.232 l 12.303,0 z"></path>
        </g>
        <g transform="translate(791.9365,341.5082)" id="g36">
          <path id="path38" style="fill:#866b5c;fill-opacity:1;fill-rule:nonzero;stroke:none" d="m 0,0 c -0.777,3.756 -2.366,6.596 -4.766,8.548 -2.409,1.942 -5.448,2.918 -9.126,2.918 -3.678,0 -6.683,-0.976 -9.023,-2.918 C -25.246,6.596 -26.8,3.756 -27.577,0 Z m -30.607,-34.527 c -4.913,2.788 -8.747,6.665 -11.51,11.612 -2.754,4.956 -4.135,10.543 -4.135,16.768 0,6.216 1.381,11.811 4.135,16.758 2.763,4.956 6.597,8.824 11.51,11.622 4.921,2.788 10.49,4.187 16.715,4.187 6.225,0 11.794,-1.399 16.707,-4.187 4.912,-2.798 8.755,-6.666 11.509,-11.622 2.763,-4.947 4.144,-10.542 4.144,-16.758 0,-2.055 -0.147,-4.067 -0.432,-6.053 h -45.509 c 0.708,-3.6 2.262,-6.398 4.671,-8.375 2.4,-1.986 5.37,-2.979 8.91,-2.979 2.685,0 5.068,0.449 7.158,1.33 2.089,0.881 3.522,2.072 4.299,3.557 h 18.986 c -1.053,-3.963 -3.039,-7.451 -5.94,-10.455 -2.901,-3.005 -6.467,-5.354 -10.715,-7.054 -4.239,-1.693 -8.841,-2.547 -13.788,-2.547 -6.225,0 -11.794,1.398 -16.715,4.196"></path>
        </g>
        <g transform="translate(615.7329,307.0132)" id="g40">
          <path id="path42" style="fill:#866b5c;fill-opacity:1;fill-rule:nonzero;stroke:none" d="M 0,0 C -23.402,11.52 -33.146,39.968 -21.627,63.368 -16.043,74.71 -6.524,82.836 4.442,86.897 7.166,81.221 10.914,76.025 15.53,71.585 6.564,69.988 -1.467,64.285 -5.762,55.558 -12.986,40.883 -6.866,23.089 7.81,15.864 22.483,8.641 40.238,14.682 47.463,29.358 c 4.295,8.726 3.917,18.569 -0.204,26.608 -2.803,5.518 -7.3,10.195 -13.249,13.123 -9.202,4.53 -16.243,11.644 -20.765,20.077 -1.479,2.602 -2.564,5.402 -3.571,8.361 -3.469,11.168 -2.835,23.667 2.71,34.93 11.518,23.4 40.006,33.028 63.408,21.508 C 99.191,142.447 108.856,114.037 97.337,90.637 91.793,79.374 82.276,71.248 71.308,67.187 68.583,72.864 64.915,78.021 60.301,82.46 c 8.884,1.636 16.876,7.261 21.172,15.987 7.224,14.675 1.183,32.431 -13.491,39.654 -14.675,7.224 -32.51,1.222 -39.734,-13.453 -4.296,-8.727 -3.879,-18.49 0.324,-26.569 2.8,-5.519 7.299,-10.197 13.248,-13.125 9.2,-4.53 16.244,-11.642 20.684,-20.037 1.44,-2.679 2.644,-5.439 3.571,-8.36 C 69.546,45.389 68.91,32.891 63.327,21.548 51.808,-1.851 23.4,-11.519 0,0"></path>
        </g>
        <g transform="translate(600.0254,394.8575)" id="g44">
          <path id="path46" style="fill:#c69c6d;fill-opacity:1;fill-rule:nonzero;stroke:none" d="M 0,0 C -12.474,12.474 -12.471,32.695 0,45.166 12.471,32.695 12.474,12.474 0,0"></path>
        </g>
        <g transform="translate(554.8593,394.8575)" id="g48">
          <path id="path50" style="fill:#c69c6d;fill-opacity:1;fill-rule:nonzero;stroke:none" d="M 0,0 C 12.474,12.474 32.692,12.474 45.166,0 32.695,-12.471 12.471,-12.471 0,0"></path>
        </g>
        <g transform="translate(579.5374,415.3455)" id="g52">
          <path id="path54" style="fill:#c69c6d;fill-opacity:1;fill-rule:nonzero;stroke:none" d="M 0,0 C -12.474,12.474 -12.471,32.695 0,45.166 12.471,32.695 12.474,12.474 0,0"></path>
        </g>
        <g transform="translate(534.3713,415.3455)" id="g56">
          <path id="path58" style="fill:#c69c6d;fill-opacity:1;fill-rule:nonzero;stroke:none" d="M 0,0 C 12.474,12.474 32.692,12.474 45.166,0 32.695,-12.471 12.471,-12.471 0,0"></path>
        </g>
        <g transform="translate(565.085,429.7979)" id="g60">
          <path id="path62" style="fill:#c69c6d;fill-opacity:1;fill-rule:nonzero;stroke:none" d="M 0,0 C -13.86,0 -25.092,11.235 -25.092,25.092 -11.235,25.092 0,13.86 0,0"></path>
        </g>
      </g>
    </g>
  </g>
</svg>
