<svg width="16" height="16" viewBox="0 0 16 16" fill="none" xmlns="http://www.w3.org/2000/svg">
<path fill-rule="evenodd" clip-rule="evenodd" d="M11.0725 2.54378C10.513 2.022 9.59887 2.39207 9.5599 3.15615L9.50399 4.25226L7.93186 5.93817C6.50132 5.73976 5.04518 6.01536 3.78609 6.72282L3.57133 6.84349C3.528 6.86783 3.52088 6.92729 3.55722 6.96118L6.33855 9.55481L3.8569 12.216C3.73438 12.3474 3.74157 12.5533 3.87295 12.6758C4.00433 12.7983 4.21015 12.7911 4.33267 12.6597L6.81432 9.99847L9.59835 12.5946C9.63325 12.6272 9.68971 12.6164 9.71023 12.5733L9.82844 12.3251C10.4406 11.0394 10.5973 9.58373 10.2727 8.19722L11.8321 6.52497L13.0144 6.36285C13.7659 6.25979 14.0607 5.3303 13.5059 4.81297L11.0725 2.54378Z" fill="#604B3D"/>
</svg>
