<svg xmlns="http://www.w3.org/2000/svg" version="1.1" width="21" height="21" fill="currentColor">
<path d="M0 0 C2.52703882 0.84234627 4.98906967 1.76317272 7.4375 2.8125 C7.4375 6.40839921 7.26091467 9.9154338 7 13.5 C6.91878906 14.65886719 6.83757813 15.81773438 6.75390625 17.01171875 C6.4375 19.8125 6.4375 19.8125 5.4375 20.8125 C3.627215 20.91129565 1.81297273 20.94221514 0 20.9375 C-1.48306641 20.94136719 -1.48306641 20.94136719 -2.99609375 20.9453125 C-5.5625 20.8125 -5.5625 20.8125 -7.5625 19.8125 C-7.8925 14.2025 -8.2225 8.5925 -8.5625 2.8125 C-2.5625 -0.1875 -2.5625 -0.1875 0 0 Z M-6.5625 3.8125 C-6.5625 4.4725 -6.5625 5.1325 -6.5625 5.8125 C-2.6025 5.8125 1.3575 5.8125 5.4375 5.8125 C5.4375 5.1525 5.4375 4.4925 5.4375 3.8125 C1.4775 3.8125 -2.4825 3.8125 -6.5625 3.8125 Z M-5.5625 7.8125 C-5.5625 11.4425 -5.5625 15.0725 -5.5625 18.8125 C-2.2625 18.8125 1.0375 18.8125 4.4375 18.8125 C4.4375 15.1825 4.4375 11.5525 4.4375 7.8125 C1.1375 7.8125 -2.1625 7.8125 -5.5625 7.8125 Z " transform="translate(10.5625,0.1875)"/>
<path d="M0 0 C0.66 0 1.32 0 2 0 C2 2.64 2 5.28 2 8 C1.34 8 0.68 8 0 8 C0 5.36 0 2.72 0 0 Z " transform="translate(12,10)"/>
<path d="M0 0 C0.66 0 1.32 0 2 0 C2 2.64 2 5.28 2 8 C1.34 8 0.68 8 0 8 C0 5.36 0 2.72 0 0 Z " transform="translate(9,10)"/>
<path d="M0 0 C0.66 0 1.32 0 2 0 C2 2.64 2 5.28 2 8 C1.34 8 0.68 8 0 8 C0 5.36 0 2.72 0 0 Z " transform="translate(6,10)"/>
</svg>
